<svg  viewBox="0 0 512 512" fill="none" xmlns="http://www.w3.org/2000/svg">
<g clip-path="url(#clip0_25_33)">
<rect  fill="#8540A5"/>
<path d="M258.314 248H214.252C213.939 244.354 213.106 241.047 211.752 238.078C210.45 235.109 208.627 232.557 206.283 230.422C203.992 228.234 201.205 226.568 197.924 225.422C194.643 224.224 190.919 223.625 186.752 223.625C179.46 223.625 173.288 225.396 168.236 228.937C163.236 232.479 159.434 237.557 156.83 244.172C154.278 250.786 153.002 258.729 153.002 268C153.002 277.792 154.304 285.995 156.908 292.609C159.564 299.172 163.393 304.12 168.393 307.453C173.393 310.734 179.408 312.375 186.439 312.375C190.45 312.375 194.044 311.88 197.221 310.891C200.398 309.849 203.158 308.365 205.502 306.438C207.846 304.51 209.747 302.193 211.205 299.484C212.715 296.724 213.731 293.625 214.252 290.187L258.314 290.5C257.794 297.271 255.893 304.172 252.611 311.203C249.33 318.182 244.669 324.641 238.627 330.578C232.637 336.464 225.215 341.203 216.361 344.797C207.507 348.391 197.221 350.187 185.502 350.187C170.814 350.187 157.637 347.036 145.971 340.734C134.356 334.432 125.163 325.161 118.393 312.922C111.674 300.682 108.314 285.708 108.314 268C108.314 250.187 111.752 235.187 118.627 223C125.502 210.76 134.773 201.516 146.439 195.266C158.106 188.964 171.127 185.812 185.502 185.812C195.606 185.812 204.903 187.193 213.393 189.953C221.882 192.714 229.33 196.75 235.736 202.062C242.143 207.323 247.299 213.807 251.205 221.516C255.111 229.224 257.481 238.052 258.314 248ZM339.896 348L366.146 188H397.396L371.146 348H339.896ZM268.959 311.437L274.271 280.187H403.021L397.709 311.437H268.959ZM283.646 348L309.896 188H341.146L314.896 348H283.646ZM278.021 255.812L283.334 224.562H412.084L406.771 255.812H278.021Z" fill="white"/>
</g>
<defs>
<clipPath id="clip0_25_33">
<rect width="512" height="512" fill="white"/>
</clipPath>
</defs>
</svg>
