<svg width="512" height="512" viewBox="0 0 512 512" fill="none" xmlns="http://www.w3.org/2000/svg">
<path d="M0 0H512V512H0V0Z" fill="#F7DF1E"/>
<path d="M363.473 417.848C373.498 434.225 386.541 446.263 409.609 446.263C428.987 446.263 441.367 436.573 441.367 423.183C441.367 407.138 428.648 401.455 407.318 392.121L395.626 387.102C361.877 372.717 339.457 354.696 339.457 316.599C339.457 281.505 366.182 254.79 407.95 254.79C437.685 254.79 459.063 265.144 474.468 292.255L438.049 315.65C430.03 301.265 421.38 295.598 407.95 295.598C394.251 295.598 385.569 304.292 385.569 315.65C385.569 329.688 394.259 335.371 414.325 344.065L426.017 349.076C465.754 366.125 488.19 383.506 488.19 422.583C488.19 464.711 455.113 487.79 410.691 487.79C367.257 487.79 339.196 467.082 325.466 439.94L363.473 417.848ZM198.26 421.903C205.607 434.944 212.29 445.97 228.359 445.97C243.725 445.97 253.418 439.955 253.418 416.568V257.462H300.186V417.2C300.186 465.651 271.793 487.703 230.35 487.703C192.904 487.703 171.218 468.315 160.19 444.963L198.26 421.903Z" fill="#262626"/>
</svg>
