<svg xmlns="http://www.w3.org/2000/svg" fill="none" viewBox="0 0 512 512"><path fill="#99425B" d="M0 0h512v512H0z"/><path fill="#fff" d="M473.966 252.504c0-27.941-21.129-51.453-49.494-58.162L488 24H173.171l63.673 170.879c-27.474 7.251-47.725 30.353-47.725 57.766 0 20.146 11.086 38.01 27.926 49.023-6.641 8.598-14.331 16.528-23.043 24.047-16.397 13.977-34.582 24.719-54.225 31.842-17.728-10.883-25.406-30.095-18.467-47.294 27.034-7.519 46.695-30.491 46.695-57.49 0-33.175-29.7-60.051-66.055-60.051-36.493 0-66.174 27.003-66.174 60.189 0 16.393 7.377 31.431 19.203 42.172-1.036 1.889-2.066 3.759-3.103 5.775-9.897 18.547-21.129 39.503-25.421 63.015-8.567 47.007 5.467 84.766 39.3 106.121C84.815 481.956 105.803 488 128.407 488c38.843 0 78.298-17.737 116.408-34.936 27.19-12.216 55.258-24.988 82.887-31.159 10.198-2.285 20.832-3.633 32.063-5.107 22.742-2.954 46.238-6.045 67.367-17.196 24.671-13.026 41.511-34.795 46.394-59.779 3.68-19.215 0-38.554-9.462-55.481a55.83 55.83 0 0 0 9.901-31.838Zm-28.804 0c0 18.67-16.698 33.854-37.232 33.854-20.535 0-37.233-15.184-37.233-33.854 0-6.048 1.773-11.82 4.872-16.789 1.179-1.889 2.665-3.76 4.133-5.376a30.87 30.87 0 0 1 5.174-4.428l.156-.142c1.174-.806 2.505-1.616 3.835-2.412 0 0 .145 0 .145-.141.591-.269 1.186-.669 1.784-.937.141 0 .283-.142.435-.142.598-.254 1.334-.523 2.066-.796.7-.244 1.39-.513 2.071-.806.145 0 .297-.145.438-.145.595-.124 1.189-.396 1.773-.523.156 0 .453-.142.595-.142.736-.127 1.33-.269 2.066-.4h.156l2.212-.41c.152 0 .435 0 .59-.127.595 0 1.179-.142 1.773-.142h.736c.736 0 1.487-.127 2.364-.127h1.925c.58 0 1.037 0 1.617.127h.297c1.189.145 2.364.269 3.553.541 16.84 3.219 29.699 16.927 29.699 33.317ZM214.381 50.862h232.395L393.443 193.93c-2.212.411-4.434 1.075-6.642 1.744L330.665 91.57 274.37 195.003c-2.222-.665-4.586-1.075-6.939-1.475l-53.05-142.666Zm105.633 189.945c-2.803-12.629-9.898-23.908-19.94-32.237l30.591-56.146 30.87 57.352c-9.161 8.329-15.806 18.943-18.467 31.031h-23.054Zm-74.009-21.213c.736-.145 1.331-.269 2.067-.41h.438c.595-.127 1.193-.127 1.773-.273h.595c.594 0 1.033-.127 1.627-.127h5.765c.58 0 1.033.127 1.472.127.297 0 .438 0 .736.146.594.127 1.033.127 1.631.268.138 0 .294 0 .591.128.74.141 1.476.268 2.066.41h.145c.595.127 1.19.254 1.77.527.156 0 .297.141.594.141.439.128 1.033.269 1.472.538.156 0 .297.127.453.127.58.273 1.179.414 1.773.683h.141c.736.254 1.331.523 1.926.937h.145c.591.269 1.185.665 1.78.934.145 0 .145.145.282.145.595.254 1.037.665 1.632.934l.156.127c1.769 1.209 3.397 2.557 5.01 3.904l.156.128c1.475 1.474 2.947 3.091 4.137 4.838 3.839 5.376 6.061 11.693 6.061 18.543 0 18.675-16.698 33.844-37.233 33.844-20.534 0-37.232-15.169-37.232-33.844-.153-15.721 11.815-29.015 28.071-32.775Zm-145.385-.951c20.537 0 37.232 15.183 37.232 33.854 0 18.674-16.695 33.854-37.232 33.854-20.535 0-37.233-15.18-37.233-33.854 0-18.671 16.698-33.854 37.233-33.854Zm343.651 116.48c-3.245 17.181-14.93 32.237-32.063 41.231-16.104 8.471-35.903 11.152-56.734 13.836-11.369 1.475-23.337 3.091-34.866 5.645-30.728 6.854-60.272 20.291-88.934 33.175-36.638 16.531-71.221 32.11-103.266 32.11-16.698 0-31.624-4.297-45.8-13.294-32.501-20.418-30.888-58.7-27.034-79.659 3.538-19.622 13.44-38.024 22.898-55.619.58-1.079 1.033-2.017 1.613-3.095a62.003 62.003 0 0 0 10.199 2.426c-5.609 28.478 10.336 57.893 41.365 72.409l5.62 2.68 6.05-2.016c25.86-8.329 49.792-21.892 70.92-40.029 11.968-10.214 22.166-21.224 30.733-33.186 3.397.542 6.797.683 10.194.683 30.733 0 56.578-19.215 63.97-45.009h24.813c7.392 25.925 33.248 45.006 63.981 45.006 12.264 0 23.637-3.088 33.379-8.326 3.853 10.073 5.028 20.545 2.962 31.032Z"/></svg>