<svg width="512" height="512" viewBox="0 0 512 512" fill="none" xmlns="http://www.w3.org/2000/svg">
<path d="M63.0312 321.159C57.8134 321.159 53.3378 319.337 49.6044 315.694C45.916 312.005 44.0942 307.53 44.1392 302.267C44.0942 297.139 45.916 292.754 49.6044 289.11C53.3378 285.467 57.8134 283.645 63.0312 283.645C67.9792 283.645 72.3423 285.467 76.1207 289.11C79.9441 292.754 81.8783 297.139 81.9233 302.267C81.8783 305.776 80.9562 308.969 79.157 311.848C77.4027 314.682 75.1087 316.953 72.2749 318.663C69.4411 320.327 66.3598 321.159 63.0312 321.159Z" fill="white"/>
<path d="M221.185 180.818V319H189.878L139.949 246.401H139.139V319H101.625V180.818H133.472L182.591 253.148H183.67V180.818H221.185Z" fill="white"/>
<path d="M238.93 319V180.818H338.518V211.045H276.444V234.795H333.39V265.023H276.444V288.773H338.248V319H238.93Z" fill="white"/>
<path d="M353.345 211.045V180.818H473.444V211.045H431.882V319H394.907V211.045H353.345Z" fill="white"/>
</svg>
