<svg xmlns="http://www.w3.org/2000/svg" viewBox="0 0 128 128"><path fill="#fff" d="m112.77 30.33-44.1-25.6a9.5 9.5 0 0 0-9.2 0L14.9 30.33C12.03 32 10 35.1 10 38.41v51.14c0 3.32 2.08 6.42 4.95 8.08l11.78 6.69c5.63 2.77 7.62 2.77 10.18 2.77 8.33 0 13.09-5.04 13.09-13.83V42.77c0-.7-.37-1.77-1.07-1.77H43.3c-.72 0-2.31 1.06-2.31 1.77v50.5c0 3.89-3.52 7.77-10.11 4.47l-12.17-7.01c-.42-.23-.72-.7-.72-1.18V38.4c0-.49.56-.97.98-1.22l44.43-25.56a1.56 1.56 0 0 1 1.44 0l43.88 25.56c.42.25.27.72.27 1.22v51.14c0 .49.18.96-.23 1.2l-44.09 25.57c-.38.23-.85.23-1.26 0l-11.3-6.75c-.35-.2-.75-.26-1.08-.08a29.43 29.43 0 0 1-6.68 3.04c-.72.25-1.8.7.41 1.93l14.8 8.75a9.3 9.3 0 0 0 4.65 1.25 9.3 9.3 0 0 0 4.67-1.25l43.88-25.58c2.87-1.67 4.23-4.76 4.23-8.08V38.4c0-3.32-1.36-6.42-4.23-8.08zM77.91 81.44c-11.73 0-14.3-3.23-15.17-9.06-.1-.63-.63-1.38-1.27-1.38h-5.73c-.71 0-1.28.86-1.28 1.57 0 7.46 4.06 16.5 23.45 16.5 14.04 0 22.09-5.45 22.09-15.1 0-9.57-6.47-12.09-20.08-13.89-13.77-1.82-15.16-2.73-15.16-5.96 0-2.66 1.18-6.2 11.37-6.2 9.1 0 12.46 1.95 13.84 8.09.12.58.65.99 1.24.99h5.76c.35 0 .69-.14.94-.4.24-.27.36-.6.33-.98-.89-10.56-7.91-15.49-22.11-15.49-12.63 0-20.17 5.34-20.17 14.28 0 9.7 7.5 12.37 19.63 13.57 14.5 1.43 15.63 3.55 15.63 6.4 0 4.95-3.98 7.06-13.31 7.06z"/></svg>