<svg xmlns="http://www.w3.org/2000/svg" width="512" height="512" fill="none"><path fill="#fff" d="M128.803 238c-.417-5.208-2.37-9.271-5.86-12.188-3.437-2.916-8.672-4.374-15.703-4.374-4.479 0-8.15.546-11.015 1.64-2.813 1.042-4.896 2.474-6.25 4.297-1.355 1.823-2.058 3.906-2.11 6.25-.104 1.927.235 3.672 1.016 5.234.833 1.511 2.135 2.891 3.906 4.141 1.77 1.198 4.037 2.292 6.797 3.281 2.76.99 6.042 1.875 9.844 2.657l13.125 2.812c8.854 1.875 16.432 4.349 22.734 7.422 6.302 3.073 11.458 6.693 15.469 10.859 4.01 4.115 6.953 8.75 8.828 13.907 1.927 5.156 2.917 10.781 2.969 16.874-.052 10.521-2.683 19.428-7.891 26.719-5.208 7.292-12.656 12.839-22.344 16.641-9.635 3.802-21.224 5.703-34.765 5.703-13.906 0-26.042-2.057-36.406-6.172-10.313-4.114-18.334-10.443-24.063-18.984-5.677-8.594-8.542-19.584-8.594-32.969h41.25c.26 4.896 1.485 9.01 3.672 12.344 2.188 3.333 5.26 5.859 9.219 7.578 4.01 1.719 8.776 2.578 14.297 2.578 4.635 0 8.515-.573 11.64-1.719 3.125-1.146 5.495-2.734 7.11-4.765 1.614-2.032 2.448-4.349 2.5-6.954-.052-2.447-.86-4.583-2.422-6.406-1.511-1.875-4.011-3.541-7.5-5-3.49-1.51-8.203-2.916-14.141-4.218l-15.937-3.438c-14.167-3.073-25.339-8.203-33.516-15.391-8.125-7.239-12.161-17.109-12.11-29.609-.051-10.156 2.657-19.036 8.126-26.641 5.52-7.656 13.15-13.619 22.89-17.89 9.792-4.271 21.016-6.407 33.672-6.407 12.917 0 24.089 2.162 33.516 6.485s16.693 10.417 21.797 18.281c5.156 7.813 7.76 16.953 7.812 27.422h-41.562ZM250.951 288.625h33.75l12.188 15.313 20.625 23.437 26.875 32.5h-38.438l-19.062-22.187-12.813-18.438-23.125-30.625ZM344.076 268c0 17.813-3.463 32.839-10.39 45.078-6.928 12.188-16.276 21.432-28.047 27.734-11.771 6.251-24.896 9.376-39.375 9.376-14.584 0-27.761-3.152-39.532-9.454-11.718-6.354-21.041-15.625-27.968-27.812-6.875-12.24-10.313-27.214-10.313-44.922 0-17.813 3.438-32.813 10.313-45 6.927-12.24 16.25-21.484 27.968-27.734 11.771-6.302 24.948-9.454 39.532-9.454 14.479 0 27.604 3.152 39.375 9.454 11.771 6.25 21.119 15.494 28.047 27.734 6.927 12.187 10.39 27.187 10.39 45Zm-44.687 0c0-9.583-1.276-17.656-3.828-24.219-2.5-6.614-6.224-11.614-11.172-15-4.896-3.437-10.938-5.156-18.125-5.156-7.188 0-13.256 1.719-18.203 5.156-4.896 3.386-8.62 8.386-11.172 15-2.5 6.563-3.75 14.636-3.75 24.219 0 9.583 1.25 17.682 3.75 24.297 2.552 6.562 6.276 11.562 11.172 15 4.947 3.385 11.015 5.078 18.203 5.078 7.187 0 13.229-1.693 18.125-5.078 4.948-3.438 8.672-8.438 11.172-15 2.552-6.615 3.828-14.714 3.828-24.297ZM364.389 348V188h43.437v125h64.688v35H364.389Z"/></svg>